{"asset":{"version":"2.0","generator":"babylon.js glTF exporter for 3dsmax 2019 v20191026.3"},"scene":0,"scenes":[{"nodes":[0,1,2],"extensions":{}}],"nodes":[{"mesh":0,"translation":[0.0,0.0,0.0],"rotation":[0.7071068,0.0,0.0,0.7071067],"scale":[1.0,0.99999994,0.99999994],"name":"defaultGroup1"},{"mesh":1,"translation":[0.0,0.0,0.0],"rotation":[0.7071068,0.0,0.0,0.7071067],"scale":[1.0,0.99999994,0.99999994],"name":"defaultGroup2"},{"translation":[0.0,0.0,0.0],"rotation":[0.0,0.0,0.0,1.0],"scale":[1.0,1.0,1.0],"name":"Default light"}],"meshes":[{"primitives":[{"attributes":{"POSITION":1,"NORMAL":2,"TEXCOORD_0":3},"indices":0,"mode":4,"material":0}],"name":"defaultGroup1"},{"primitives":[{"attributes":{"POSITION":5,"NORMAL":6,"TEXCOORD_0":7},"indices":4,"mode":4,"material":0}],"name":"defaultGroup2"}],"accessors":[{"bufferView":0,"componentType":5123,"count":822,"type":"SCALAR","name":"accessorIndices"},{"bufferView":1,"componentType":5126,"count":822,"max":[0.225000009,0.253,0.0],"min":[-0.225000009,-0.224999979,-1.33999991],"type":"VEC3","name":"accessorPositions"},{"bufferView":1,"byteOffset":9864,"componentType":5126,"count":822,"type":"VEC3","name":"accessorNormals"},{"bufferView":2,"componentType":5126,"count":822,"type":"VEC2","name":"accessorUVs"},{"bufferView":0,"byteOffset":1644,"componentType":5123,"count":64578,"type":"SCALAR","name":"accessorIndices"},{"bufferView":1,"byteOffset":19728,"componentType":5126,"count":64578,"max":[1.42499959,1.42500007,1.1920929E-07],"min":[-1.42494237,-0.225000337,-1.34499991],"type":"VEC3","name":"accessorPositions"},{"bufferView":1,"byteOffset":794664,"componentType":5126,"count":64578,"type":"VEC3","name":"accessorNormals"},{"bufferView":2,"byteOffset":6576,"componentType":5126,"count":64578,"type":"VEC2","name":"accessorUVs"}],"bufferViews":[{"buffer":0,"byteLength":130800,"name":"bufferViewScalar"},{"buffer":0,"byteOffset":130800,"byteLength":1569600,"byteStride":12,"name":"bufferViewFloatVec3"},{"buffer":0,"byteOffset":1700400,"byteLength":523200,"byteStride":8,"name":"bufferViewFloatVec2"}],"buffers":[{"uri":"lockerhome.bin","byteLength":2223600}],"materials":[{"pbrMetallicRoughness":{"baseColorFactor":[0.5,0.5,0.5,1.0],"baseColorTexture":{"index":0,"texCoord":0},"metallicFactor":1.0,"roughnessFactor":1.0,"metallicRoughnessTexture":{"index":1,"texCoord":0}},"emissiveFactor":[0.0,0.0,0.0],"alphaMode":"OPAQUE","name":"lockerhome_01"}],"textures":[{"sampler":0,"source":0,"name":"0001.png"},{"sampler":0,"source":1,"name":"Roughnessmetallic.jpg"}],"images":[{"uri":"0001.png"},{"uri":"Roughnessmetallic.jpg"}],"samplers":[{"magFilter":9729,"minFilter":9987,"wrapS":10497,"wrapT":10497}]}